HIERARCHY
ROOT Hips
{
  OFFSET 1.44925e-005 102.336 -0.101585
  CHANNELS 6 Xposition Yposition Zposition Zrotation Xrotation Yrotation
  JOINT LeftUpLeg
  {
    OFFSET 8.9458 -8.66707 0.101652
    CHANNELS 3 Zrotation Xrotation Yrotation
    JOINT LeftLeg
    {
      OFFSET 0 -44.4227 1.3727
      CHANNELS 3 Zrotation Xrotation Yrotation
      JOINT LeftFoot
      {
        OFFSET -0.253549 -42.0924 -1.46059
        CHANNELS 3 Zrotation Xrotation Yrotation
        JOINT LeftToes
        {
          OFFSET -0.04 -4.41509 8.4991
          CHANNELS 3 Zrotation Xrotation Yrotation
          End Site
          {
            OFFSET 0.08 -0.047448 9.77979
          }
        }
      }
    }
  }
  JOINT Spine
  {
    OFFSET 0 11.8905 0
    CHANNELS 3 Zrotation Xrotation Yrotation
    JOINT Spine1
    {
      OFFSET 0 25.6574 0.127663
      CHANNELS 3 Zrotation Xrotation Yrotation
      JOINT RightShoulder
      {
        OFFSET -8.99 -0.362252 -0.22
        CHANNELS 3 Zrotation Xrotation Yrotation
        JOINT RightArm
        {
          OFFSET -10.2827 -0.00338 0.322123
          CHANNELS 3 Zrotation Xrotation Yrotation
          JOINT RightForeArm
          {
            OFFSET -26.364 0.099144 -1.42434
            CHANNELS 3 Zrotation Xrotation Yrotation
            JOINT RightHand
            {
              OFFSET -22.0324 0.085362 1.02216
              CHANNELS 3 Zrotation Xrotation Yrotation
              End Site
              {
                OFFSET -13.3284 -0.6 1.50291
              }
            }
          }
        }
      }
      JOINT LeftShoulder1
      {
        OFFSET 8.99 -0.362252 -0.22
        CHANNELS 3 Zrotation Xrotation Yrotation
        JOINT LeftArm
        {
          OFFSET 10.2827 -0.00337999 0.322123
          CHANNELS 3 Zrotation Xrotation Yrotation
          JOINT LeftForeArm
          {
            OFFSET 26.2597 0.099144 -1.42434
            CHANNELS 3 Zrotation Xrotation Yrotation
            JOINT LeftHand
            {
              OFFSET 22.0902 0.085362 1.02216
              CHANNELS 3 Zrotation Xrotation Yrotation
              End Site
              {
                OFFSET 13.419 -0.6 1.50291
              }
            }
          }
        }
      }
      JOINT Head
      {
        OFFSET 0 8.73416 0.011341
        CHANNELS 3 Zrotation Xrotation Yrotation
        End Site
        {
          OFFSET -0.29 12.7742 2.51395
        }
      }
    }
  }
  JOINT RightUpLeg
  {
    OFFSET -8.9458 -8.66707 0.101652
    CHANNELS 3 Zrotation Xrotation Yrotation
    JOINT RightLeg
    {
      OFFSET 0 -44.4227 1.3727
      CHANNELS 3 Zrotation Xrotation Yrotation
      JOINT RightFoot
      {
        OFFSET 0.253549 -42.0924 -1.46059
        CHANNELS 3 Zrotation Xrotation Yrotation
        JOINT RightToes
        {
          OFFSET 0.04 -4.41509 8.4991
          CHANNELS 3 Zrotation Xrotation Yrotation
          End Site
          {
            OFFSET -0.08 -0.137448 9.77979
          }
        }
      }
    }
  }
}
MOTION
Frames:	17
Frame Time:	0.0333333
53.3249 98.4754 7.27832 -8.30177 -0.45984 -94.2739 -6.85657 15.624 4.53084 -0.659167 15.7427 23.2388 -3.42858 -25.7343 -0.420181 -1.35524e-009 8.75216e-006 -1.4693e-008 -5.24916 15.4896 -3.04304 5.19532 -1.09008 -4.63306 36.6698 1.78736 0.163097 22.9412 -30.1333 -24.7796 10.4207 43.7724 -2.91716 -10.8555 9.52069 -1.02915 -38.6468 3.03379 -3.25538 -25.8922 -16.4732 -44.5523 3.33972 29.2987 -33.0167 5.82328 9.61819 -0.917488 1.22374 -12.8946 2.04426 -1.5477 -20.4858 -0.912909 1.31286 9.87254 -13.9816 13.2569 -12.9387 0.416583 0.0462048 0.000530889 0.662642 
49.6483 97.7157 6.97509 -8.37397 -0.611775 -93.3937 -6.71554 17.6842 5.15808 -0.233882 16.8041 21.4817 -5.78244 -27.1377 -0.871957 -1.35524e-009 8.75216e-006 -1.4693e-008 -4.89453 15.0147 -3.03611 5.38694 -0.475338 -4.62799 36.6689 1.78603 0.161892 24.9214 -29.2858 -23.0377 10.2924 43.8745 -1.67609 -10.1035 9.52063 -0.694204 -39.0975 3.08003 -3.28668 -26.3529 -15.5463 -43.9133 4.61438 30.3434 -35.4565 5.82328 9.61819 -0.917488 1.18992 -13.3423 1.25645 -1.65356 -19.8061 -1.26342 1.77722 7.47388 -15.149 13.6411 -13.565 0.503888 0.0462048 0.000530889 0.662642 
45.7594 97.0108 6.49929 -8.25684 -0.694901 -92.1721 -6.14282 19.306 5.65292 0.381739 18.6488 19.3361 -8.15298 -27.7088 -1.3333 -1.35524e-009 8.75216e-006 -1.4693e-008 -4.74518 14.3042 -3.09971 6.02885 -0.0591559 -4.78134 36.6713 1.77992 0.147386 27.2954 -28.3864 -20.175 10.4917 45.0534 -1.24876 -9.63722 9.51949 -0.494918 -39.7268 3.14396 -3.32761 -26.0119 -13.5876 -41.97 5.2992 30.837 -36.7324 5.82328 9.61819 -0.917488 1.12792 -13.3048 0.538478 -1.31652 -19.6109 -1.26673 1.77644 9.17584 -17.7384 11.9036 -13.3985 0.401808 0.0462048 0.000530889 0.662642 
41.6687 96.4428 5.97204 -7.94921 0.0141276 -91.0627 -4.67631 20.5272 5.31075 0.952359 21.1169 17.791 -10.6246 -27.3849 -1.75867 -1.35524e-009 8.75216e-006 -1.4693e-008 -3.34498 13.4214 -3.34206 6.27245 0.11831 -4.86506 36.7535 1.76736 0.110907 29.6828 -27.845 -16.664 10.8871 46.4973 -1.52288 -9.67167 9.50901 -0.370177 -40.4903 3.21886 -3.36927 -24.9907 -10.3548 -38.9394 5.15441 30.7452 -36.4332 5.82328 9.61819 -0.917488 0.833885 -12.9092 -0.303929 -0.241522 -19.985 -1.28193 1.86812 13.1775 -20.662 7.59905 -10.5481 0.016115 0.0462048 0.000530889 0.662642 
37.4428 95.9593 5.4908 -7.7478 1.26798 -90.4051 -2.3426 21.1696 4.49733 1.03206 24.9496 17.3205 -14.3415 -26.2813 -2.28401 -1.35524e-009 8.75216e-006 -1.4693e-008 -0.0889475 12.5458 -3.53659 5.3981 0.225238 -4.4644 37.0121 1.76119 0.0742143 32.0305 -27.7821 -12.2193 11.5667 47.788 -2.56113 -10.1393 9.46815 -0.111322 -41.3875 3.30499 -3.41159 -23.706 -6.00132 -35.1199 4.32532 30.2378 -34.4505 5.82328 9.61819 -0.917488 0.355068 -12.5501 -1.13224 1.70658 -21.1664 -2.35189 1.7081 18.954 -20.5281 3.19484 -6.28744 -0.204186 0.0462048 0.000530889 0.662642 
33.2488 95.5882 4.99611 -7.77364 3.03761 -90.8842 0.222713 20.5076 4.73823 1.02286 31.397 16.7073 -17.8487 -22.8767 -2.33267 -1.35524e-009 8.75216e-006 -1.4693e-008 3.52147 11.9662 -3.43538 4.09453 0.317858 -3.67407 37.3637 1.76948 0.0632864 34.6111 -27.9653 -6.20059 12.6869 48.9277 -4.47625 -10.7089 9.41812 0.176085 -42.3055 3.39199 -3.44988 -22.7878 -0.927499 -30.6987 2.79428 28.9695 -30.7356 5.82328 9.61819 -0.917488 0.0104351 -12.3846 -1.54448 4.12321 -22.0839 -4.54746 0.367299 24.8357 -16.692 0.386182 -4.16187 -0.167836 0.0462048 0.000530889 0.662642 
29.3296 95.3774 4.38039 -7.91514 4.24578 -91.326 2.6214 17.5072 4.66516 1.14238 41.1581 16.1955 -17.7326 -15.4838 -1.19503 -1.35524e-009 8.75216e-006 -1.4693e-008 5.67462 11.8527 -3.29126 3.59457 0.267967 -3.0704 37.5708 1.78164 0.0735765 37.7566 -27.9261 1.30609 13.9714 49.6471 -6.57732 -11.0994 9.39301 0.247477 -43.0439 3.45721 -3.46914 -22.8969 4.18268 -26.077 0.350377 26.6524 -25.3723 5.82328 9.61819 -0.917488 0.0264795 -12.3201 -1.59862 6.26163 -21.9264 -5.11534 -0.977435 29.4358 -14.4544 -1.12832 -5.92684 -0.145061 0.0462048 0.000530889 0.662642 
25.8913 95.2853 3.73508 -8.07763 5.06428 -90.6492 4.64582 12.2466 2.74797 1.38927 52.5289 15.8966 -14.4276 -6.46295 0.17196 -1.35524e-009 8.75216e-006 -1.4693e-008 6.93806 12.1662 -3.44618 3.87794 0.231831 -2.86421 37.5309 1.784 0.0823425 41.2271 -27.0566 9.29371 14.6304 49.21 -7.31267 -11.5232 9.37561 0.209704 -43.622 3.50119 -3.46986 -25.6551 3.40215 -21.7362 -3.09731 29.1591 -18.3539 5.82328 9.61819 -0.917488 0.332567 -12.4083 -1.96914 7.74414 -21.034 -4.12567 -1.06307 32.671 -15.9963 -1.8915 -9.45429 -0.212268 0.0462048 0.000530889 0.662642 
22.824 95.3966 3.22301 -8.32357 5.53511 -89.3284 5.63663 6.29303 -0.0704697 1.88264 62.6558 15.796 -11.5405 -1.567 0.622419 -1.35524e-009 8.75216e-006 -1.4693e-008 8.55895 12.5971 -3.69449 3.64175 0.461023 -2.55322 37.309 1.77495 0.0805369 44.0789 -25.0613 16.6752 14.2179 47.306 -5.67961 -12.2459 9.32596 0.3565 -44.2718 3.55024 -3.47088 -30.8431 -9.79922 -18.4891 -9.42622 43.3955 -8.32851 5.82328 9.61819 -0.917488 0.706662 -12.8308 -3.15162 8.56022 -19.6386 -4.24228 -1.12711 34.5164 -17.3955 -1.91294 -12.2224 -0.278318 0.0462048 0.000530889 0.662642 
19.7464 95.9321 2.84736 -8.67665 5.36744 -88.6954 5.22633 1.05061 -1.96821 2.59064 69.7356 16.4675 -9.91361 -2.31726 0.465734 -1.35524e-009 8.75216e-006 -1.4693e-008 10.1369 12.787 -3.41965 2.10398 0.884088 -1.64107 36.872 1.7614 0.0867534 45.7541 -22.4824 23.0811 13.1522 44.8002 -2.29518 -12.9224 9.25972 0.672152 -44.9955 3.60619 -3.46857 -32.9814 -19.7525 -15.7244 -16.9505 52.7289 3.12591 5.82328 9.61819 -0.917488 0.922516 -13.4543 -4.84433 8.53859 -17.2286 -4.60435 -1.15083 34.644 -17.6384 -1.34544 -14.0292 -0.290082 0.0462048 0.000530889 0.662642 
16.616 96.6997 2.53377 -8.96185 4.67118 -89.0963 4.06967 -3.51824 -2.65211 3.29706 73.5184 17.302 -8.96421 -5.45066 0.190838 -1.35524e-009 8.75216e-006 -1.4693e-008 11.2142 12.8318 -2.62976 -0.095714 1.2041 -0.276796 36.0729 1.74595 0.120281 46.5193 -19.768 28.659 11.825 42.4105 1.59763 -13.1196 9.2175 0.974945 -45.4416 3.63493 -3.45775 -31.9769 -22.7742 -11.2457 -20.2144 54.3532 8.70993 5.82328 9.61819 -0.917488 0.840432 -13.8193 -6.33536 7.91581 -14.1083 -4.85541 -1.05498 33.5735 -16.9672 -0.846707 -15.6931 -0.286511 0.0462048 0.000530889 0.662642 
13.5286 97.4429 2.25279 -9.09742 3.90007 -89.9496 2.86418 -7.84159 -3.01298 3.5857 74.5857 17.4326 -8.09415 -7.79589 0.0215065 -1.35524e-009 8.75216e-006 -1.4693e-008 12.0821 12.9645 -1.78043 -2.18128 1.14144 1.08219 34.8939 1.72334 0.171779 46.3397 -16.3243 33.46 10.3103 39.1682 5.29703 -13.072 9.18557 1.30411 -45.437 3.6231 -3.43579 -29.6194 -22.8089 -4.87748 -19.2835 53.4896 7.68248 5.82328 9.61819 -0.917488 0.489844 -13.7058 -7.25693 7.13233 -10.9462 -4.86543 -0.661275 32.0878 -16.3254 -0.767786 -17.2098 -0.301538 0.0462048 0.000530889 0.662642 
10.4832 98.1385 2.01191 -9.17255 3.22369 -90.8321 1.74884 -11.7498 -3.50575 3.2601 73.3348 17.0042 -7.30274 -9.43352 -0.0733894 -1.35524e-009 8.75216e-006 -1.4693e-008 12.9215 13.1943 -1.07219 -4.11205 0.764716 2.22473 33.4931 1.68939 0.21785 45.5451 -12.9498 37.7011 8.93984 35.3384 8.43409 -13.159 9.1421 1.66797 -45.29 3.60194 -3.41693 -26.9441 -20.4589 2.1567 -16.3166 51.4461 2.87972 5.82328 9.61819 -0.917488 0.0298022 -13.3754 -7.74535 6.31831 -7.84348 -4.64918 -0.0778174 30.3522 -15.868 -0.709862 -18.2708 -0.310206 0.0462048 0.000530889 0.662642 
7.47046 98.7416 1.81822 -9.26173 2.54064 -91.7 0.775782 -14.8801 -3.87057 2.607 69.8262 16.417 -7.45164 -11.365 -0.193 -1.35524e-009 8.75216e-006 -1.4693e-008 13.5251 13.4106 -0.393494 -5.97258 0.398649 3.19079 32.0704 1.64835 0.249686 44.1903 -10.086 41.4651 7.73475 31.2684 11.2343 -13.1951 9.12494 1.80912 -45.2663 3.59317 -3.40359 -25.1448 -15.8176 8.3414 -13.0591 47.8745 -2.57681 5.82328 9.61819 -0.917488 -0.403986 -13.1448 -8.07008 5.40713 -4.73425 -4.58743 0.302706 28.4642 -14.9888 -0.285441 -19.1988 -0.27862 0.0462048 0.000530889 0.662642 
4.51673 99.2092 1.64612 -9.30811 1.86674 -92.5288 0.155811 -17.2565 -3.87952 1.97855 64.1822 15.979 -8.39953 -12.4962 -0.299112 -1.35524e-009 8.75216e-006 -1.4693e-008 13.7246 13.5315 0.301143 -7.54957 0.191599 3.98996 30.8542 1.61023 0.269499 42.2959 -7.86915 44.7532 6.62986 27.4517 13.8109 -12.9167 9.16186 1.62055 -45.2119 3.58232 -3.39074 -24.5252 -11.7822 13.317 -10.83 44.4251 -6.23847 5.82328 9.61819 -0.917488 -0.791988 -13.0333 -8.3361 4.51599 -1.64967 -4.7376 0.446237 26.433 -13.8351 0.220519 -20.1991 -0.231627 0.0462048 0.000530889 0.662642 
1.63032 99.559 1.46588 -9.24332 1.34549 -93.1624 -0.104114 -19.0353 -3.69065 1.54959 56.8645 16.1192 -9.05175 -12.0415 -0.294362 -1.35524e-009 8.75216e-006 -1.4693e-008 13.5904 13.5654 0.900743 -8.66594 0.0426569 4.53995 30.1083 1.58336 0.272186 40.0654 -6.32854 47.4996 5.68814 24.2335 16.0823 -12.6159 9.20134 1.41274 -44.9419 3.55733 -3.38225 -24.0577 -11.1781 17.4232 -9.99146 43.1795 -7.37337 5.82328 9.61819 -0.917488 -1.11858 -12.9375 -8.50608 3.85003 1.34954 -4.90551 0.548045 24.1894 -12.9364 0.554115 -21.0562 -0.195547 0.0462048 0.000530889 0.662642 
-1.21723 99.7596 1.28649 -9.07846 1.04895 -93.4785 -0.181335 -20.204 -3.49712 1.30849 48.4205 16.7623 -9.25618 -11.5677 -0.266422 -1.35524e-009 8.75216e-006 -1.4693e-008 13.3142 13.5078 1.31048 -9.38265 -0.0669583 4.83142 29.907 1.56887 0.252801 37.8171 -5.32414 49.5211 4.96473 21.4796 18.1211 -12.6934 9.18867 1.49095 -44.5945 3.5293 -3.3791 -22.746 -14.0678 20.7727 -10.4125 44.3662 -6.15899 5.82328 9.61819 -0.917488 -1.29419 -12.861 -8.55512 3.43692 4.16143 -5.11873 0.692862 21.9844 -12.292 1.03429 -21.8345 -0.135267 0.0462048 0.000530889 0.662642 
